<?xml version="1.0" encoding="UTF-8" standalone="no"?>
<svg xmlns="http://www.w3.org/2000/svg" version="1.1" viewBox="0 0 121.5 85">
  <path fill="#f00" d="M 118.9,13.3 C 117.5,8.1 113.4,4 108.2,2.6 98.7,0 60.7,0 60.7,0 60.7,0 22.7,0 13.2,2.5 8.1,3.9 3.9,8.1 2.5,13.3 0,22.8 0,42.5 0,42.5 0,42.5 0,62.3 2.5,71.7 3.9,76.9 8,81 13.2,82.4 22.8,85 60.7,85 60.7,85 c 0,0 38,0 47.5,-2.5 5.2,-1.4 9.3,-5.5 10.7,-10.7 2.5,-9.5 2.5,-29.2 2.5,-29.2 0,0 0.1,-19.8 -2.5,-29.3 z" />
  <path fill="#fff" d="m 48.014337,61.406781 c 0,4.061585 -3.302975,7.364559 -7.365902,7.364559 -4.062927,0 -7.365902,-3.302974 -7.365902,-7.364559 0,-4.062928 3.302975,-7.365902 7.365902,-7.365902 4.062927,0 7.365902,3.304317 7.365902,7.365902 z m 42.09413,7.365902 C 90.219909,51.832182 82.386757,35.047432 69.262132,24.334247 59.263248,15.986851 46.317199,11.255273 33.282533,11.299581 v 13.14745 C 48.705814,24.268456 63.90621,32.66016 71.827979,45.919052 a 44.015494,44.015494 0 0 1 6.428717,22.830805 h 11.851771 z m -20.086383,0 C 70.087875,57.880922 64.91053,47.167737 56.451692,40.337562 49.978667,35.025949 41.654097,32.034474 33.283876,32.080125 v 11.070336 c 9.106005,-0.111442 18.034779,5.111555 22.386381,13.123282 a 25.908211,25.908211 0 0 1 3.237183,12.521765 h 11.114644 z" />
</svg>
